<?xml version="1.0" encoding="UTF-8" standalone="no"?>
<svg width="974px" height="245px" viewBox="0 0 974 245" version="1.1" xmlns="http://www.w3.org/2000/svg" xmlns:xlink="http://www.w3.org/1999/xlink" xmlns:sketch="http://www.bohemiancoding.com/sketch/ns">
    <!-- Generator: Sketch 3.1.1 (8761) - http://www.bohemiancoding.com/sketch -->
    <title>renameloveresilience-knockout</title>
    <desc>Created with Sketch.</desc>
    <defs></defs>
    <g id="Page-1" stroke="none" stroke-width="1" fill="none" fill-rule="evenodd" sketch:type="MSPage">
        <g id="Desktop" sketch:type="MSArtboardGroup" transform="translate(-32.000000, -66.000000)" fill="#25CBF2">
            <g id="renameloveresilience-knockout" sketch:type="MSLayerGroup" transform="translate(32.000000, 66.000000)">
                <path d="M247.8,91.1 C247.9,87.7 245.4,85.2 245.4,85.2 C240.9,83.6 239.8,84.6 239.8,84.6 C239,87.7 238.9,89.5 238.9,89.5 C239.8,92.6 241,93.4 241,93.4 C243.2,92.8 244.8,93.8 244.8,93.8 C247,92.6 247.8,91.1 247.8,91.1 L247.8,91.1 Z" id="Shape" sketch:type="MSShapeGroup"></path>
                <path d="M299.2,97.4 C298.2,98.4 298.1,99 298.1,99 C299.2,100 300.5,99.6 300.5,99.6 C302.4,98.2 302.3,96.8 302.3,96.8 C300.5,95.8 299.2,97.4 299.2,97.4 L299.2,97.4 Z" id="Shape" sketch:type="MSShapeGroup"></path>
                <path d="M165.9,108.9 L165.7,109 C164.8,108.8 163.3,109.7 163.3,109.7 C160.5,112.5 158.7,116.6 158.7,116.6 C158.5,119.1 156.2,122.5 156.2,122.5 C155.4,123.3 155.6,124.5 155.6,124.5 C156.2,127.4 157.5,129.4 157.5,129.4 C158.5,130.5 159.2,133.6 159.2,133.6 C161,134.5 162.9,135.4 162.9,135.4 C163.7,136.2 165,136 165,136 C166.5,134.8 168.3,133.7 168.3,133.7 C169.7,133.1 169.7,132.5 169.7,132.5 C169.2,125.3 170.1,120.5 170.1,120.5 C168.9,119.3 168.7,116.1 168.7,116.1 C167,112.9 165.9,108.9 165.9,108.9 L165.9,108.9 Z" id="Shape" sketch:type="MSShapeGroup"></path>
                <path d="M900.2,126.2 C898.7,124.2 896.2,124.7 896.2,124.7 C894,125.5 892.7,127.9 892.7,127.9 C892.4,130.2 893.7,131.1 893.7,131.1 C895.2,131.1 897.9,129.8 897.9,129.8 C899.5,128.2 900.2,126.2 900.2,126.2 L900.2,126.2 Z" id="Shape" sketch:type="MSShapeGroup"></path>
                <path d="M357.9,51.8 C356.8,51.8 356.3,53 356.3,53 C356.3,54.6 357.4,56.2 357.4,56.2 C359.4,57 362.5,55.6 362.5,55.6 C361.1,52.9 357.9,51.8 357.9,51.8 L357.9,51.8 Z" id="Shape" sketch:type="MSShapeGroup"></path>
                <path d="M927.3,155.2 C927.3,155.2 926.6,153.5 924.5,153.3 C924.5,153.3 921.6,153.9 919.9,153.1 C919.9,153.1 916.4,154 914.4,157.8 C914.4,157.8 913.4,161.1 914.5,165 C914.5,165 915.2,166.4 918.1,166.9 C918.1,166.9 920.2,166.8 923.7,166.4 C923.7,166.4 926.1,166.3 929.1,163.8 C929.1,163.8 930.7,162.9 929.7,159.7 C929.6,159.8 927.8,157.9 927.3,155.2 L927.3,155.2 Z" id="Shape" sketch:type="MSShapeGroup"></path>
                <path d="M47.8,154.7 L42.3,155.2 C36.3,156.7 32.1,159.2 32.1,159.2 C29.9,161.2 30.6,163.2 30.6,163.2 L31.3,165.5 L30.5,166.3 C32.8,169.6 37.1,175.8 37.1,175.8 C42.8,173.8 45.8,170.3 45.8,170.3 C49.6,166.5 50.5,162.1 50.5,162.1 C51,157.8 49.2,154.3 49.2,154.3 L47.8,154.7 L47.8,154.7 Z" id="Shape" sketch:type="MSShapeGroup"></path>
                <path d="M973,130.2 L962.5,124.1 L960.1,123.5 L954,120.5 L947.2,116.7 L943.8,114 L943,114 L939.2,111.5 L936.7,110.6 L928.2,105.2 L916.6,98.8 L911.1,95 L909.2,93.6 L907.4,92.7 L901.5,87.9 L891.1,83.3 L890.7,81.3 L887.5,80.2 L886,80 L885.1,78.4 L879.9,77 L876.4,74.6 L864.8,67 L851,60.2 L843.5,57.6 L835.9,53.8 L831.8,51.6 L828,49.8 L823.6,47.8 L818.2,46.7 L809.2,43.3 L806.4,42.7 L796.6,38.8 L793.5,38.3 L791.1,36.9 L785.3,36.1 L771.7,33.7 L771.2,32.5 L768.1,33 L767.3,33.4 L763.1,33.3 L761.7,32.7 L751.8,30.3 L751.9,32.7 L748.9,33.6 L745.1,32.9 L743,32.9 L731.2,31.8 L722.4,30.3 L718.9,29.2 L716.9,29.9 L712.9,29.9 L711.4,29.3 L709.9,29.5 L707.5,28.1 L706.4,29 L693.8,26.9 L689.4,27.3 L688.8,26.5 L687.6,26.6 L686.8,27 L677.4,26.4 L674.3,26.6 L654.3,21.4 L644.8,18.3 L635.9,16.8 L631.9,15.9 L631.4,17.5 L606.4,12.7 L604.8,12.9 L600,12.5 L598.8,11.4 L596.3,10.9 L589.5,10.8 L585.4,10.2 L579.5,9.7 L573.9,8.3 L570.9,8.1 L562.5,6.7 L557.5,5.8 L556,5.6 L555.8,4.7 L545.2,4.5 L544.1,4.9 L543,4.9 L542.2,3.9 L541,3.9 L540.4,3.3 L528.6,2.9 L524.8,3.5 L522,2.3 L515,1.8 L514.9,2.6 L507.1,1.8 L506.1,2.3 L483.6,1.4 L478.8,2.3 L477.2,0.9 L472,0.9 L471.4,0.3 L445.2,1.3 L443.6,1.7 L438.4,2.3 L434.9,3.1 L429.9,3.5 L422.7,4.6 L415.2,7.1 L410.2,8.2 L403.6,9.7 L401.5,8.8 L400.6,9.7 L399.8,8.9 L396.7,10.9 L395,10.9 L392.1,11.3 L372.1,14.2 L357.1,15.2 L331.6,17.2 L309,20.6 L304.1,21.1 L296.5,21.2 L295.4,21.8 L284.8,22.9 L282.9,23.9 L276.7,24.9 L271.2,26.1 L268,26.5 L265.2,27.7 L263,28.2 L243.6,31.2 L233.2,32.8 L228,32.8 L228,33.8 L217.2,35.7 L203.4,39.9 L184.5,43.7 L182.9,43.2 L180.8,43.3 L179.6,44.2 L177.4,44.3 L170.9,46.9 L164.4,48.4 L155.5,50.8 L154.1,51.9 L147.7,53.5 L137.3,57.4 L136.5,56.6 L121.9,64.1 L119.4,64.6 L95.3,79 L87.4,83.9 L84.5,84.8 L82.7,87.7 L80.7,88.8 L79.2,90.3 L75,93.5 L71,97.6 L60.6,108.1 L45.6,118.5 L44.1,120.4 L41.7,121.8 L40,121.8 L39.5,122.8 L37.9,124.3 L36.8,125.5 L27.7,132.4 L15.7,139.2 L13.5,141.3 L0,150 L0,155.9 L1.5,156 L8.5,172.5 L13.5,184.5 L17,201 L19,205 L19.5,209 L23,213 L32,239 L34.5,241 L34,245 L46,243.5 L45.5,241 L71.5,224 L96.5,210 L115,197.5 L141,182.5 L164,172.5 L166,169 L196,157 L200,157 L205,152 L219.5,148 L222.5,148.5 L227.7,146 L235.9,145.5 L235.9,144 L275.9,131 L288.9,128.2 L292.1,126.4 L312.5,122.2 L338.9,116.2 L338.9,114 L366.7,107.5 L375.9,107.3 L376.4,106.3 L396.4,102.5 L415.6,101.7 L432.1,102.2 L434.1,103.2 L440.9,101.7 L462.4,99.7 L519.2,101.7 L522.4,101.9 L570.6,105.7 L572.8,106.7 L579.8,105.9 L588.3,107.7 L590.1,109.2 L598.3,110 L599.8,109.8 L605.8,110.8 L609,110.3 L633,116.5 L641.8,118 L643.6,119 L654.8,121.8 L655.8,121.6 L662.8,122.8 L674,124.8 L687.8,129.4 L689.8,127 L692.8,127 L698.3,128.5 L699.8,128.1 L702.6,129.7 L706.6,129.9 L712.6,131.1 L717,132 L727.5,135.6 L730.1,137.1 L745.6,141.1 L746.2,142.3 L747.4,141.9 L749.3,141.8 L750.2,142.8 L757.3,143 L757.8,142.2 L764.7,144.7 L782.7,151.9 L803.7,158 L805.2,157.6 L807.1,158.4 L809.3,158.9 L812.1,159.1 L815.9,162 L832,168.2 L840.1,173 L845.9,175.9 L845.9,176.7 L861.5,185.8 L878.4,194.4 L883.8,196.6 L893.6,203.5 L894.6,205.4 L905.1,210.6 L906.2,212.4 L908.1,212.6 L909,212.6 L913.5,215 L914,216.4 L915.9,217.5 L927.9,223.9 L932.8,225.5 L934.3,226.9 L937.5,228.7 L942.6,230.8 L944.8,230 L946.7,224.9 L948.7,224 L948.3,220.9 L950.2,218.9 L948.2,217 L952.3,201.9 L954.5,198 L955.4,191.2 L959.5,176.3 L960.1,176.2 L962.3,171.3 L962.8,166.4 L966,158.3 L966.5,155.2 L967.6,153.1 L973.4,131.9 L973,130.2 L973,130.2 Z M86.7,183.8 C85,185.6 81.2,187 81.2,187 L80,187 L78.5,188.2 L73.8,189 C72.3,191 69.5,190.3 69.5,190.3 C58.3,187.3 58.2,183.8 58.2,183.8 C55.2,179.6 53.5,178 53.5,178 C51.5,175.7 49.2,177.5 49.2,177.5 C48.2,180 45.5,180.5 45.5,180.5 C41,180.3 40,180 40,180 C40.5,181.5 40.2,183 40.2,183 C46.2,189.2 49.7,194 49.7,194 C57.9,203.2 57.9,204.7 57.9,204.7 C59.2,207.7 59.2,209.4 59.2,209.4 L60,211 L58,212 L56,212 C53.8,212.7 52.8,211.2 52.8,211.2 C52,209.2 53.6,208.7 53.6,208.7 C52.3,204 48.3,200.7 48.3,200.7 L47.3,199.1 L45.8,198 L42.6,194 L41.1,193.3 C37.6,188.1 34.6,185.5 34.6,185.5 L33.9,182.7 L32.1,180.3 L31.4,179.2 C27.2,174.7 26.4,169.9 26.4,169.9 C24.6,166.1 25.3,161.5 25.3,161.5 C28.5,154.3 38.2,150.4 38.2,150.4 C48.5,147.1 50.4,148.9 50.4,148.9 C56.2,152.4 56.1,156.4 56.1,156.4 C56.4,164.6 54.3,167.9 54.3,167.9 C55.1,169.2 54,171.6 54,171.6 C59.8,175.4 60,178.1 60,178.1 C64.7,184.3 69.3,183.9 69.3,183.9 C80.1,182.7 81.8,182.1 81.8,182.1 C88,181.3 86.7,183.8 86.7,183.8 L86.7,183.8 Z M112.5,165.8 C109.7,168.3 106.5,173.3 106.5,173.3 C101.7,179.5 97.1,178.1 97.1,178.1 C91.1,179.1 90.3,178.8 90.3,178.8 C86.5,177.9 84.1,175.8 84.1,175.8 L81.9,175.2 L81.3,174.3 C80,172 79.8,169.8 79.8,169.8 C79,164 79.8,161.3 79.8,161.3 C71,158.9 66.8,154.1 66.8,154.1 C64,148.9 63.6,146.1 63.6,146.1 C64.4,140.3 67.5,136.6 67.5,136.6 C70.1,131.4 73.7,129.1 73.7,129.1 L76.5,127.9 L81.9,127.7 C84.7,127.7 84.4,129.6 84.4,129.6 C83.8,131.1 82.2,131.4 82.2,131.4 C81.2,132.4 79,131.5 79,131.5 C75.8,132.3 71.8,137 71.8,137 L70,141.5 L69.4,141.9 L69.5,142.5 C68,148.3 69.7,150.3 69.7,150.3 C72.3,153.7 76.7,155.5 76.7,155.5 C78.2,157 86.2,152.7 86.2,152.7 C89.1,150.7 91.9,153 91.9,153 C92.3,155.9 88,158.5 88,158.5 C86.8,160.1 84.7,160.1 84.7,160.1 C85.5,163.8 85.1,167.3 85.1,167.3 C87.3,171.5 87.1,172.9 87.1,172.9 C93.3,175.6 98.3,172 98.3,172 C98.8,171.1 102.7,169.2 102.7,169.2 C108.9,158.6 112.5,160.7 112.5,160.7 C114.9,162.1 112.5,165.8 112.5,165.8 L112.5,165.8 Z M153.2,147.2 C153.2,147.2 151.5,149 146.4,149.5 C146.4,149.5 139.9,149.5 135.9,145.8 L134.9,145.3 C134.9,145.3 130.1,144.1 127.7,141.5 C127.7,141.5 120.4,137.7 115.7,134.3 C115.7,134.3 109.9,132 107.5,129.1 C107.5,129.1 104,128.1 97.7,126.3 C97.7,126.3 102,133.5 106.7,138.5 C106.7,138.5 116.7,146.5 121.5,154.5 C121.5,154.5 123.5,161.8 122.8,168.2 C122.8,168.2 121.1,171.2 119.1,171.2 C119.1,171.2 117.8,170.5 117.3,167.9 C117.3,167.9 117.3,161.1 116.1,154.1 C116.1,154.1 102.4,142.6 94.6,133.6 C94.6,133.6 90.9,127.8 88.4,121.6 L89.1,117.6 C89.1,117.6 93.3,116 96.9,118.8 C96.9,118.8 104.9,125.2 111.9,126.3 C111.9,126.3 112.5,126.4 113.4,127.3 L116,127.9 L116.7,129.1 L124,131.7 L125.3,133.4 C125.3,133.4 129.3,135.2 134.7,139.2 L137.8,140.3 L138.7,141.5 C138.7,141.5 144.9,144.8 148.2,144.5 C148.2,144.5 149.2,142.8 148.2,141.7 C148.2,141.7 143,138.1 142.3,134.4 C142.3,134.4 141.3,133.9 139.6,131.6 C139.6,131.6 135.4,123.1 130.8,117.3 C130.8,117.3 126.1,111.3 123.1,105.8 L122.9,104.5 L121.7,103.8 C121.7,103.8 120.5,102 121.5,99.8 C121.5,99.8 122.4,98.3 125.2,99.3 C125.2,99.3 130.3,103.8 133.5,109.1 L133.9,110.6 L134.9,111.1 L138.3,115.7 C138.3,115.7 142.2,118.9 142.3,123.7 C142.3,123.7 141.8,124.4 143.3,128 C143.3,128 145.3,130 147.6,134 C147.6,134 149,138 152.6,141.2 L152.8,142.5 C152.8,142.5 154.5,145.2 153.2,147.2 L153.2,147.2 Z M187.9,124.1 C187.9,124.1 187.7,125.8 185.2,126.1 C185.2,126.1 183.4,126 180.7,122.2 C180.7,122.2 179.1,121.4 176.8,121.1 C176.8,121.1 176.1,120.6 176.1,119.3 C176.1,119.3 175.4,118.4 173.2,118.1 C173.2,118.1 173.7,121.9 173.7,125.1 L175.5,129.4 C175.5,129.4 174.3,134.9 169.8,139.6 C169.8,139.6 167.3,142.6 160,140.8 C160,140.8 155.7,139 154.2,135.5 C154.2,135.5 151.9,132 152.2,128 C152.2,128 150.9,123.7 152,118 C152,118 151.3,114.7 159.7,107.3 L159.7,106.3 L164.4,102.4 L164.9,101.2 L167.7,100.9 C167.7,100.9 168.9,102.9 169.8,104.1 C169.8,104.1 173.2,105.3 176.3,113.5 C176.3,113.5 177.1,115.5 179.7,117.3 C179.7,117.3 182.5,117.6 185.2,120.4 C185.2,120.4 186.6,121.1 187.4,122 C187.6,121.9 188.4,122.4 187.9,124.1 L187.9,124.1 Z M226.2,117.9 C226.2,117.9 220.1,115.1 217.4,111.9 C217.4,111.9 217.4,110.4 216.4,108.7 C216.4,108.7 215.2,108.3 213.5,104.7 C213.5,104.7 213.5,101.5 212.6,98.3 C212.6,98.3 213.3,84.7 206.9,70.7 C206.9,70.7 206.6,69.2 205.3,69 C205.3,69 204.5,68.5 204.2,70 C204.2,70 205.4,74.5 204.8,80.1 C204.8,80.1 205.4,86.5 204.7,90.5 C204.7,90.5 203.3,98 201.3,99.4 C201.3,99.4 194.1,99.4 190.2,96.6 C190.2,96.6 188.6,94.8 185.7,93.2 L186.6,95.4 C186.6,95.4 188.6,98.3 189.1,99.9 C189.1,99.9 190.6,100.8 190.6,105.9 C190.6,105.9 193.5,110.9 194.1,118.4 C194.1,118.4 194.1,121.6 193.3,122.6 C193.3,122.6 189.3,120.6 186.4,114.1 C186.4,114.1 185.8,113 185.2,109.1 L183.1,103.6 L183.2,100.6 C183.2,100.6 180.7,94 178.6,89.5 C178.6,89.5 175,86 173.8,82.3 C173.8,82.3 175.4,78.4 177.9,79.5 C177.9,79.5 182.7,84 184.8,85.1 C184.8,85.1 191.9,90.7 195.4,93.3 C195.4,93.3 198.4,93.9 199.8,92.7 C199.8,92.7 199.6,85.7 199.9,79.3 C199.9,79.3 199.5,75.8 200.4,67.9 C200.4,67.9 200,65.5 202,64.3 C202,64.3 202.8,64.1 204.7,62.7 C204.7,62.7 207.2,61.4 209.7,66.6 C209.7,66.6 214.6,69.4 215.2,78.5 C215.2,78.5 215.5,80.1 216.3,85.3 C216.3,85.3 217.1,86.7 218.2,92.1 C218.2,92.1 217.6,98.5 220.8,102.9 C220.8,102.9 223.2,105.3 225.8,109.9 C225.8,109.9 228.3,112.3 228.9,115.4 C228.9,115.4 228.4,117.2 226.2,117.9 L226.2,117.9 Z M263.2,104.1 C263.2,104.1 259.4,107.1 254,108 L253.2,108.9 C253.2,108.9 243.6,107.7 239.8,105.7 C239.8,105.7 239.6,104.1 236.9,101.8 C236.9,101.8 236,101.6 235.9,100.4 L234.9,97 C234.9,97 234.9,97 233.9,94 C233.9,94 233.9,86.6 236.9,81.9 C236.9,81.9 238.1,80.1 240.4,79.9 C240.4,79.9 243.8,79.5 247.4,80.7 C247.4,80.7 249.6,82.5 251.6,87.8 C251.6,87.8 251.6,90.3 250.1,94 C250.1,94 248,96.6 243.5,98.9 C243.5,98.9 245,101.7 248.1,101.7 C248.1,101.7 250.5,100.8 252.9,100.8 C252.9,100.8 255.5,100.7 259.1,99.9 C259.1,99.9 261.6,99.1 264.3,99.1 C264.3,99.1 265.5,99.1 266.1,101 C266.2,101 266.6,102 263.2,104.1 L263.2,104.1 Z M336.4,88.5 C336.4,88.5 334.5,92.3 331.8,92.9 C331.8,92.9 330.2,92.1 326.9,93.5 C326.9,93.5 323.5,96.1 317.4,96.4 C317.4,96.4 313.8,95 309.6,95.8 C309.6,95.8 307.6,95.6 306.6,98.4 C306.6,98.4 305.8,100.9 303.2,104.5 C303.2,104.5 300,106.3 296.3,104.1 C296.3,104.1 294.5,103.3 293.8,98.6 C293.8,98.6 293.3,95.5 297.4,93.6 C297.4,93.6 297.4,92.1 295,89.1 C295,89.1 291.8,86.3 290.5,83 C290.5,83 290.4,80.4 289.1,78.1 C289.1,78.1 287.5,75 287.3,69.9 L286.9,68.3 C286.9,68.3 287.7,54.5 289.1,49.5 C289.1,49.5 289.1,47.5 291.6,46.5 C291.6,46.5 293.5,46.3 293.8,48.4 C293.8,48.4 293.9,50.2 292.8,53.3 C292.8,53.3 293.6,56.9 293,60.2 C293,60.2 293.5,61 293.5,63.4 C293.5,63.4 292.6,66.4 293.6,72.8 C293.6,72.8 294.2,74.8 295.4,79.7 C295.4,79.7 296.9,81.5 297.5,84.2 C297.5,84.2 299.7,89.4 303.5,92.1 C303.5,92.1 308.1,90.2 310.7,90.5 C310.7,90.5 316.1,91.3 323.3,89.7 C323.3,89.7 324.2,89.3 326.5,88.9 C326.5,88.9 328.7,89 331,87.7 C331,87.7 332.6,85.7 334.8,86.1 C335.2,86 336.6,85.8 336.4,88.5 L336.4,88.5 Z M372.2,53.9 C372.2,53.9 370.2,55.4 368.1,56.4 C368.1,56.4 366.6,56.5 368.1,58.2 C368.1,58.2 370,62.1 371.2,67.3 C371.2,67.3 372,72.1 371,76.3 C371,76.3 370.8,81.2 366,83.2 C366,83.2 361.8,85.6 356.6,86.7 C356.6,86.7 351.5,88.5 345.6,86.2 C345.6,86.2 340.2,83.4 337.5,82.1 C337.5,82.1 336,81.6 334.4,79.7 C334.4,79.7 332,71.2 333.3,64.3 C333.3,64.3 333.3,60.8 335.3,59.8 C335.3,59.8 338.5,57 341.3,53.9 C341.3,53.9 341.2,52.7 342.2,52.4 C342.2,52.4 344.6,51.3 345.8,52.5 C345.8,52.5 346.3,52.9 345.4,55 C345.4,55 344.5,56.4 341.9,58.4 C341.9,58.4 338.7,60.2 338.3,61.6 C338.3,61.6 338.9,65.5 337.1,68.7 C337.1,68.7 335.7,71.9 336.7,76.8 C336.7,76.8 339.2,79.9 342.7,81.6 C342.7,81.6 350.6,84.8 353.5,84.1 C353.5,84.1 356.6,82.6 362.7,80.3 C362.7,80.3 364.2,77.9 366.2,74.9 C366.2,74.9 367.1,72.5 367.3,68.1 C367.3,68.1 366.4,63.9 365.5,59.9 C365.5,59.9 365.5,58.8 364.4,59.4 C364.4,59.4 358.9,61.3 355,59.5 C355,59.5 353.9,57.7 352.6,55.9 C352.6,55.9 352,53.5 353.6,50.8 C353.6,50.8 355.5,49 359,49.3 C359,49.3 363.2,50.2 365.4,54.1 C365.4,54.1 368.9,52.1 371.4,52.2 C371.4,52.2 372.9,52.6 372.2,53.9 L372.2,53.9 Z M417,40.2 C417,40.2 416.4,43.8 413.9,45.8 C413.9,45.8 413.3,48 412,49.6 C412,49.6 409.6,53.1 406.1,62 C406.1,62 405.1,66.9 402.1,72.1 C402.1,72.1 403.7,75.1 403.5,79.9 C403.5,79.9 403.3,81.3 400.5,82.7 C400.5,82.7 397,82.6 394.5,81.6 C394.5,81.6 393,80.6 393,78.6 C393,78.6 393.6,73.8 396.1,71.5 C396.1,71.5 394.2,63.3 392.2,60 C392.2,60 382.8,48 378.8,43.2 C378.8,43.2 375.4,42.1 376.3,39.7 C376.3,39.7 377.9,38.5 379.7,38.8 C379.7,38.8 383.3,40.6 386.3,44.9 C386.3,44.9 387.9,46.5 390.5,50 C390.5,50 396.7,58.4 398.9,63.6 C398.9,63.6 399.5,64.7 400.1,65 C400.1,65 405.9,53.9 409.7,46 C409.7,46 409.8,44.4 411.2,41.4 C411.2,41.4 412,37.8 413.1,35.6 C413.1,35.6 414.3,35 414.3,32.5 C414.3,32.5 414.9,30.6 416.9,30.9 C416.9,30.9 418.7,31.5 417.8,35.3 C418,35.2 418.5,36.5 417,40.2 L417,40.2 Z M460,77.6 C452.8,80.4 446.8,84 446.8,84 C445,84.5 439.9,83.4 439.9,83.4 C437.8,82.6 434.5,82.3 434.5,82.3 C430.4,80.8 428.6,75.7 428.6,75.7 C427.2,69.3 429.4,64.1 429.4,64.1 C429.9,61.5 431.3,60.1 431.3,60.1 C428.5,56.1 428.2,51.9 428.2,51.9 C428.2,47.4 429.1,45.3 429.1,45.3 C432,39.5 435.6,36.5 435.6,36.5 C441.2,33.9 442.7,34.3 442.7,34.3 C446.2,32.9 449.1,34.7 449.1,34.7 C455.7,38.9 458.3,45.3 458.3,45.3 C456.9,46.1 454.5,44.4 454.5,44.4 C450.4,38.3 445.7,37.6 445.7,37.6 C442.8,36.8 438.7,39 438.7,39 C435.3,40.9 432.1,45.6 432.1,45.6 C432,48.2 431.2,50.5 431.2,50.5 C431.7,53.3 433.8,57.6 433.8,57.6 C440.2,54.8 443.2,55.6 443.2,55.6 C446,56.2 446.2,59.2 446.2,59.2 C445.7,61.8 444.3,63.1 444.3,63.1 C441.2,64.6 434.9,64.1 434.9,64.1 C432.8,67.1 432.8,70.7 432.8,70.7 C432.4,74.7 434.6,78.5 434.6,78.5 C436.4,80.1 441,80.1 441,80.1 C450.4,79.5 455.8,74.1 455.8,74.1 C458.2,72.5 461,75.1 461,75.1 C461.2,76.1 460,77.6 460,77.6 L460,77.6 Z M545.5,90 C545.5,90 542.2,91.2 539.2,89.5 C539.2,89.5 536.5,85.2 533.2,79.3 C533.2,79.3 528.7,74.1 527.9,65.8 C527.9,65.8 524.9,62.1 521.9,60.5 C521.9,60.5 518.2,62.3 513.9,61.5 C513.9,61.5 510.9,60.2 511.9,57.2 C511.9,57.2 513.7,54 521.1,54.9 C521.1,54.9 525.4,50.2 527.4,47.1 C527.4,47.1 526.4,43.8 526.9,41.9 C526.9,41.9 527.7,38.6 525.9,35.2 C525.9,35.2 523.6,33.5 519.4,33.5 C519.4,33.5 514.2,34.2 510.4,37 C510.4,37 506.6,38.3 506.9,44.2 C506.9,44.2 507.4,48.2 508.2,56.5 C508.2,56.5 509.5,60.3 508.7,66.3 C508.7,66.3 509.7,71.6 507.9,77.5 C507.9,77.5 508.1,82 506.9,82.8 C506.9,82.8 503.7,81.1 502.2,78.6 C502.2,78.6 501.9,75.4 502.9,71.9 C502.9,71.9 502.4,64.7 503.4,59.6 C503.4,59.6 502.4,51.1 502.4,44.4 C502.4,44.4 501.6,41.4 503.9,36.2 C503.9,36.2 508.6,31.4 513.7,29.9 C513.7,29.9 522.2,29.1 527.5,31.4 C527.5,31.4 530.5,32.7 530.8,41.6 C530.8,41.6 531.8,49.1 531.3,53.8 C531.3,53.8 531,57 526.5,58.5 C526.5,58.5 534,66.3 535,71.3 C535,71.3 536.7,73.8 539.3,80.5 C539.3,80.5 542,82.3 544.5,85 C544.5,85 546.5,86.3 545.5,90 L545.5,90 Z M570.5,47 C567.8,44.2 566.2,40.2 566.2,40.2 C562.2,37.4 558,36 558,36 C552.2,36 549,37.7 549,37.7 C544.3,41 543.8,41.9 543.8,41.9 C540.5,47.1 542,50.2 542,50.2 L544.2,53.5 L548.2,55.3 C555,56.6 557.5,59.3 557.5,59.3 C557.8,60.3 556.3,61.5 556.3,61.5 C547.9,72 549,73.2 549,73.2 C548.8,75.7 549.3,77.7 550.5,78.9 C551.8,80.7 552,82.4 552,82.4 C557.2,85.6 566.7,86.6 566.7,86.6 C569.9,87.1 570.9,89.3 570.9,89.3 C569.9,90.1 566.4,90.3 566.4,90.3 C562.9,91.8 555.9,88.5 555.9,88.5 C551.1,87 549.2,85.8 549.2,85.8 C541.2,75.5 541.9,72.8 541.9,72.8 C542.9,68.5 547.4,65.3 547.4,65.3 C549.1,63.8 549.8,61.5 549.8,61.5 C547.8,59.2 544.3,57.6 544.3,57.6 C538.8,54.8 538.1,50.3 538.1,50.3 C537.1,42.8 539.6,40.8 539.6,40.8 C544.1,33.8 549.6,32.8 549.6,32.8 C557.1,31.6 561.3,33.3 561.3,33.3 C568.8,36 570,39.1 570,39.1 C573,43.4 574.3,47.8 574.3,47.8 C571.8,47.5 570.5,47 570.5,47 L570.5,47 Z M609.4,79.1 C609.4,84.9 607.7,87.2 607.7,87.2 C602.4,90.3 600,91.1 600,91.1 C597.8,93.3 595.1,93.6 595.1,93.6 C592.3,91.9 590.4,92.4 590.4,92.4 C586.9,91.9 583.9,89.2 583.9,89.2 C581.5,87.1 580.3,83.4 580.3,83.4 C579.2,80.2 578.9,79.8 578.9,79.8 C577.6,78.7 577.6,77.9 577.6,77.9 C577.9,76.3 579.4,76.7 579.4,76.7 C581.7,76.5 582.6,76.7 582.6,76.7 C583.8,77 583.4,78.5 583.4,78.5 C585.5,81.1 587,83.3 587,83.3 C588.3,86.4 591.7,87.7 591.7,87.7 C594.9,86.2 599.9,85.2 599.9,85.2 C603.3,84.1 604.6,79.6 604.6,79.6 C605.1,76.4 603.5,73.4 603.5,73.4 C601.4,69.1 597.7,64.2 597.7,64.2 C595.5,62 593.5,60.3 593.5,60.3 C589.9,58.9 584.7,56 584.7,56 C580.5,49.6 580.1,43.6 580.1,43.6 C580.9,37.6 583.6,34.3 583.6,34.3 C586,32.4 588.7,31.4 588.7,31.4 C593.8,30.4 598.1,31.2 598.1,31.2 C602.8,32.1 603.8,33.4 603.8,33.4 C607,36 608.2,37.4 608.2,37.4 C611.3,41.3 610.3,43.1 610.3,43.1 C608.9,44.2 605.1,40.9 605.1,40.9 C600.3,33.6 596.9,34.8 596.9,34.8 C593.1,34.8 590.4,35.6 590.4,35.6 C586.2,37.1 585.6,39 585.6,39 C584.3,43.4 584.1,44 584.1,44 C587.1,49.2 590.7,52.2 590.7,52.2 C596.8,56 598.8,58.4 598.8,58.4 C601.7,61.6 603.5,64.4 603.5,64.4 C608.6,68.2 610.6,71.9 610.6,71.9 C610.8,75.2 609.4,79.1 609.4,79.1 L609.4,79.1 Z M643.9,51.9 C643.9,51.9 642.9,57.4 641.4,63.3 C641.4,63.3 639.5,74.4 638,80.3 C638,80.3 638.4,79.7 639.4,80.9 C639.4,80.9 639.6,82.4 637.4,85.3 C637.4,85.3 638.2,88.4 635.9,91.4 C635.9,91.4 636.8,92.8 635,96.5 C635,96.5 635.4,97 635,99.5 C635,99.5 633.4,102.9 630.4,102.9 C630.4,102.9 628.5,102.9 628.2,101.7 C628.2,101.7 630.4,94.3 631.7,91.9 C631.7,91.9 632.2,87.7 633.2,81.1 C633.2,81.1 634.1,79 635.6,75.1 C635.6,75.1 635.7,73.5 636,71.2 C636,71.2 637.5,62.7 639,56.3 C639,56.3 638.9,53.1 639.8,48.9 C639.8,48.9 639.8,45.9 640.2,42.4 C640.2,42.4 641,40.5 643.1,40.8 C643.1,40.8 644.2,40.7 645,42.3 C644.8,42.4 645.4,45.4 643.9,51.9 L643.9,51.9 Z M643.5,39.1 C643.5,39.1 640.6,40.1 637.5,38.7 C637.5,38.7 635.6,37.6 634.4,34.3 C634.4,34.3 634.4,31.8 636.5,30.9 C636.5,30.9 637.4,29.8 641.1,29.1 C641.1,29.1 642.2,29 644.3,30.5 C644.3,30.5 647.1,32.4 647.1,34.6 C647.1,34.8 646.6,37.1 643.5,39.1 L643.5,39.1 Z M702.2,110.2 C702.2,110.2 699.3,111.8 695.3,111.8 C695.3,111.8 689.5,112.6 684.1,110.4 C684.1,110.4 680.2,108.8 680,105.6 C680,105.6 680.9,101.6 678.5,100.2 C678.5,100.2 674.4,101.1 670,103.2 C670,103.2 666,103.8 663.4,101.7 C663.4,101.7 661.5,100.8 662.3,97.6 C662.3,97.6 664.7,93.7 668.2,91.8 C668.2,91.8 670.1,90.6 673.4,86.3 C673.4,86.3 673.3,85.3 674,79.8 C674,79.8 674.4,75 674,71.6 C674,71.6 673.9,67.7 674.9,66.1 C674.9,66.1 675.4,63.3 676.8,57.6 C676.8,57.6 677.7,54.6 679,50 C679,50 678.8,47.6 680,45.5 C680,45.5 682.2,44.5 684.1,45.1 C684.1,45.1 686,46 685.2,48.2 C685.2,48.2 685.1,49.8 683.6,53.2 C683.6,53.2 681.8,54.4 680.8,57.6 C680.8,57.6 680.4,61.1 678.2,68.7 C678.2,68.7 677.8,72.8 677.1,78.7 C677.1,78.7 678.3,83.2 677.6,87.6 C677.6,87.6 676.7,91.8 674.7,93.6 C674.7,93.6 673.1,94.4 674.6,94.8 C674.6,94.8 676.8,95.2 680.5,95.2 C680.5,95.2 683.4,96.3 684.7,99.6 C684.7,99.6 685.6,102.8 687.3,104.8 C687.3,104.8 689.9,106.8 695.5,105.8 C695.5,105.8 699,105.6 701.6,106.9 C701.8,107.1 703.8,108.4 702.2,110.2 L702.2,110.2 Z M738.2,62.8 C738.2,62.8 734.1,71.8 732.8,77.4 C732.8,77.4 733.4,78.5 732.2,82.9 C732.2,82.9 732.4,87.1 731,93.1 C731,93.1 728.9,101.1 725.8,107.5 C725.8,107.5 724.7,112.7 725.3,119 C725.3,119 726.3,120.8 724.5,122.9 C724.5,122.9 721.9,123.8 720,121.5 C720,121.5 719.1,119.4 720.4,115.4 C720.4,115.4 720.9,111.9 721.5,107.9 C721.5,107.9 721.7,100.7 724.4,96.3 C724.4,96.3 728.6,89.4 729.6,82.8 C729.6,82.8 728.6,79.8 728.4,76.7 C728.4,76.7 729.8,67.8 732.9,59.6 C732.9,59.6 733.1,55.4 736.7,54.5 C736.7,54.5 737.6,54 738.7,56.6 C738.6,56.5 739,57.4 738.2,62.8 L738.2,62.8 Z M746.2,48.2 C746.2,48.2 743.3,49.1 740.7,49.8 C740.7,49.8 738.2,49.6 735.5,48.3 C735.5,48.3 734.1,47.5 732.4,44.3 C732.4,44.3 732.5,40.9 734.2,39.2 C734.2,39.2 737.7,37.3 741.1,38.1 C741.1,38.1 745.1,39.3 747.5,43.1 C747.4,43.1 748,45.5 746.2,48.2 L746.2,48.2 Z M796.3,78.3 C796.3,78.3 792.5,73.6 787.1,69.3 C787.1,69.3 785.3,67.8 780.3,68.3 C780.3,68.3 777.5,67.6 772.3,73.1 C772.3,73.1 768.6,81.9 771.3,88.9 C771.3,88.9 776.8,93.2 776,96.9 C776,96.9 770.8,100.1 766.2,99.1 C766.2,99.1 760.5,103.3 757.4,111.3 C757.4,111.3 757.9,113.1 759.4,119 C759.4,119 760.1,123.3 768.7,126 C768.7,126 771.9,126.5 776.5,124.3 C776.5,124.3 778.3,122.6 783,122.8 C783,122.8 785.5,122.8 787,127.1 C787,127.1 785.3,128.4 778.7,130.3 C778.7,130.3 771.7,133 760,128.1 C760,128.1 754.8,125.8 751.7,118.6 C751.7,118.6 748,114.1 749.2,107.6 C749.2,107.6 753.7,96.8 762,91.8 C762,91.8 760.8,84.6 761.8,77 C761.8,77 762.3,74 767.1,68 C767.1,68 770.6,64.3 778.3,63.2 C778.3,63.2 784.1,61.7 791,65.9 C791,65.9 798.5,71.7 803,78.9 C803,78.9 804.8,81.9 803.3,84.2 C803.3,84.2 797.5,82.2 796.3,78.3 L796.3,78.3 Z M854.3,107.5 C854.3,107.5 852.3,113.7 847.8,117.5 C847.8,117.5 844.1,119.3 842.8,124.5 C842.8,124.5 842.1,126.8 838.6,131.7 C838.6,131.7 837.3,136.2 837.9,144.7 C837.9,144.7 837.2,147.7 834.7,147.7 C834.7,147.7 831.5,147.9 828.7,143.4 C828.7,143.4 827.4,142.4 826.9,133.4 C826.9,133.4 823.7,127.7 824.1,120.7 C824.1,120.7 823.3,119.7 822.9,117.2 C822.9,117.2 822.9,114.2 821.9,109.7 C821.9,109.7 817.6,102 816.4,94 C816.4,94 814.9,92.2 813.7,96.7 C813.7,96.7 812,113.5 808,126.4 C808,126.4 805.3,137.2 803.7,139.6 C803.7,139.6 801.7,140.6 800.5,140.6 C800.5,140.6 799.5,137.9 799.5,134.6 C799.5,134.6 801.3,126.3 804,119.3 C804,119.3 806,115.8 807,110.6 C807,110.6 806.8,101.6 810,93.3 C810,93.3 809.2,89.6 811.5,85.6 C811.5,85.6 814.2,82.8 816.5,84.6 C816.5,84.6 823.8,95.3 826.2,105.4 C826.2,105.4 826.2,111.2 827.9,115.7 C827.9,115.7 829.1,116.2 829.9,120.5 C829.9,120.5 829.9,123.8 833.1,126.8 C833.1,126.8 834.1,127.8 835.9,125.3 C835.9,125.3 835.6,122.8 840.1,118 C840.1,118 842.1,116 843.8,111.3 C843.8,111.3 843.6,110 846.6,106 C846.6,106 847.9,102.5 850.8,97 C850.8,97 851.5,95 854.6,94.2 C854.6,94.2 857.1,94.4 858.6,98 C858.6,98 859.3,101 856.6,104.7 C856.7,104.7 855,106 854.3,107.5 L854.3,107.5 Z M888,129.2 C888,129.2 887,125.9 889.7,123.2 L891,121.7 L889,122 C889,122 886.7,121.3 878.8,121.3 C878.8,121.3 877.8,123.5 873.8,124.8 C873.8,124.8 870,126.1 867.1,130.6 C867.1,130.6 865.3,135.6 864.9,142.1 C864.9,142.1 868.2,151.1 873.2,153.6 C873.2,153.6 875.4,153.9 878.2,157.8 C878.2,157.8 880.4,159.1 878,160.3 C878,160.3 874.5,160.8 869.3,158.1 C869.3,158.1 864,154.1 860.8,147.3 C860.8,147.3 858.5,143.1 858.5,137.6 C858.5,137.6 859,132.1 862.7,127.4 C862.7,127.4 864.9,123.9 872.4,119.1 C872.4,119.1 875.2,115.6 882.4,115.3 C882.4,115.3 886.1,115.3 894.6,119.5 C894.6,119.5 897.8,118.7 907.1,126.2 C907.1,126.2 909.4,127.4 908.4,128.9 C908.4,128.9 906.7,130.6 902.4,128.4 C902.4,128.4 901.4,130.9 899.4,133.7 C899.4,133.7 897.9,135 894.1,134.9 C894.2,134.8 889.8,133.5 888,129.2 L888,129.2 Z M935.5,164 C935.5,164 935,168.5 929.3,170.7 C929.3,170.7 925.3,172.4 922.3,172 C922.3,172 917.6,172.8 914.6,171 L913.9,170 L913.9,171.2 C913.9,171.2 912.8,173.7 915.1,175.4 C915.1,175.4 919.7,179.7 926.3,185.6 C926.3,185.6 928.5,187.8 932,189.6 C932,189.6 934.3,189.3 935,190.9 C935,190.9 935.2,193.2 933.7,193.6 C933.7,193.6 931.2,193.6 927,191.6 C927,191.6 923,189.8 915,184.1 C915,184.1 910.7,180.9 908.3,176.4 C908.3,176.4 907.5,173.6 909.6,170.1 C909.6,170.1 909.6,167.6 909.1,166.8 L908.9,168 C908.9,168 904.1,165.3 899.5,163.9 C899.5,163.9 894,161.7 890.8,159.9 C890.8,159.9 889.1,158.6 891.1,158.2 C891.1,158.2 893.4,157.9 897.7,159.4 C897.7,159.4 903.6,161.8 907.4,163.1 C907.4,163.1 906.6,159.9 907.8,156.4 C907.8,156.4 909.3,152.9 911,151.2 C911,151.2 913.9,150.4 916.3,149.2 C916.3,149.2 919.3,147 924.5,148.4 C924.5,148.4 928.3,149.6 933,155.2 C933.2,155.2 936.3,157.8 935.5,164 L935.5,164 Z" id="Shape" sketch:type="MSShapeGroup"></path>
            </g>
        </g>
    </g>
</svg>