<?xml version="1.0" encoding="UTF-8" standalone="no"?>
<svg width="974px" height="245px" viewBox="0 0 974 245" version="1.1" xmlns="http://www.w3.org/2000/svg" xmlns:xlink="http://www.w3.org/1999/xlink" xmlns:sketch="http://www.bohemiancoding.com/sketch/ns">
    <!-- Generator: Sketch 3.1.1 (8761) - http://www.bohemiancoding.com/sketch -->
    <title>renameloveresilience</title>
    <desc>Created with Sketch.</desc>
    <defs></defs>
    <g id="Page-1" stroke="none" stroke-width="1" fill="none" fill-rule="evenodd" sketch:type="MSPage">
        <g id="Desktop" sketch:type="MSArtboardGroup" transform="translate(-30.000000, -365.000000)">
            <g id="renameloveresilience" sketch:type="MSLayerGroup" transform="translate(30.000000, 365.000000)">
                <g id="Sign_2" fill="#25CBF2" sketch:type="MSShapeGroup">
                    <path d="M0,150 L0,155.9 L1.5,156 L8.5,172.5 L13.5,184.5 L17,201 L19,205 L19.5,209 L23,213 L32,239 L34.5,241 L34,245 L46,243.5 L45.5,241 L71.5,224 L96.5,210 L115,197.5 L141,182.5 L164,172.5 L166,169 L196,157 L200,157 L205,152 L219.5,148 L222.5,148.5 L227.8,146 L236,145.5 L236,144 L276,131 L289,128.2 L292.2,126.5 L312.6,122.2 L339,116.2 L339,114 L366.8,107.5 L376,107.2 L376.5,106.2 L396.5,102.5 L415.8,101.8 L432.2,102.2 L434.2,103.2 L441,101.8 L462.5,99.8 L519.2,101.8 L522.5,102 L570.8,105.8 L573,106.8 L580,106 L588.5,107.8 L590.2,109.2 L598.5,110 L600,109.8 L606,110.8 L609.2,110.2 L633.2,116.5 L642,118 L643.8,119 L655,121.8 L656,121.5 L663,122.8 L674.2,124.8 L688,129.4 L690,127 L693,127 L698.5,128.5 L700,128.1 L702.8,129.8 L706.8,130 L712.8,131.2 L717.1,132.1 L727.6,135.8 L730.2,137.2 L745.8,141.2 L746.4,142.5 L747.6,142.1 L749.5,142 L750.4,143 L757.5,143.2 L758,142.5 L764.9,145 L782.9,152.2 L803.9,158.4 L805.4,158 L807.2,158.8 L809.5,159.2 L812.2,159.5 L816,162.4 L832.1,168.6 L840.2,173.4 L846,176.2 L846,177 L861.6,186.1 L878.5,194.8 L883.9,197 L893.6,203.9 L894.6,205.8 L905.1,211 L906.2,212.8 L908.1,213 L909,213 L913.5,215.4 L914,216.8 L915.9,217.9 L927.9,224.2 L932.8,225.9 L934.2,227.2 L937.5,229 L942.6,231.1 L944.9,230.4 L946.8,225.2 L948.8,224.4 L948.4,221.2 L950.2,219.2 L948.2,217.4 L952.4,202.2 L954.6,198.4 L955.5,191.6 L959.6,176.8 L960.2,176.6 L962.5,171.8 L963,166.9 L966.2,158.8 L966.8,155.6 L967.9,153.5 L973.6,132.2 L973,130.2 L962.5,124.1 L960.1,123.5 L954,120.5 L947.2,116.7 L943.9,114 L943,114 L939.2,111.5 L936.8,110.6 L928.2,105.2 L916.6,98.9 L911.1,95.1 L909.2,93.8 L907.5,92.9 L901.6,88.1 L891.2,83.5 L890.9,81.5 L887.6,80.4 L886,80 L885.1,78.4 L879.9,77 L876.4,74.6 L864.8,67 L851,60.2 L843.5,57.6 L835.9,53.9 L831.8,51.6 L828,49.9 L823.6,47.9 L818.2,46.8 L809.2,43.4 L806.5,42.8 L796.8,38.9 L793.6,38.4 L791.2,37 L785.5,36.2 L771.9,33.9 L771.4,32.6 L768.2,33.1 L767.5,33.5 L763.2,33.4 L761.9,32.8 L752,30.4 L752.1,32.8 L749.1,33.7 L745.4,33 L743,33 L731.2,31.9 L722.5,30.4 L719,29.3 L717,30 L713,30 L711.5,29.4 L710,29.6 L707.6,28.2 L706.5,29.1 L693.9,27 L689.5,27.4 L688.9,26.6 L687.6,26.8 L686.9,27.1 L677.5,26.5 L674.4,26.8 L654.4,21.5 L644.9,18.4 L636,16.9 L632,16 L631.5,17.6 L606.5,12.9 L604.9,13.1 L600.1,12.8 L598.9,11.6 L596.4,11.1 L589.6,11 L585.5,10.4 L579.6,9.9 L574,8.5 L571,8.2 L562.6,6.9 L557.6,6 L556.1,5.8 L555.9,4.9 L545.2,4.6 L544.1,5 L543,5 L542.2,4 L541,4 L540.4,3.4 L528.6,3 L524.9,3.6 L522.1,2.4 L515.1,1.9 L515,2.6 L507.2,1.9 L506.2,2.4 L483.8,1.5 L479,2.4 L477.4,1 L472,1 L471.4,0.4 L445.1,1.4 L443.5,1.8 L438.2,2.4 L434.8,3.1 L429.8,3.5 L422.5,4.6 L415,7.1 L410,8.2 L403.4,9.8 L401.2,8.9 L400.4,9.8 L399.6,9 L396.5,11 L395,11 L392.1,11.4 L372.1,14.2 L357.1,15.2 L331.6,17.2 L309,20.6 L304.1,21.1 L296.5,21.2 L295.4,21.9 L284.8,23 L282.9,24 L276.6,25 L271.1,26.2 L267.9,26.6 L265.1,27.9 L262.9,28.4 L243.5,31.4 L233.1,33 L228,33 L228,34 L217.2,35.9 L203.5,40.1 L184.6,43.9 L183,43.4 L180.9,43.5 L179.6,44.4 L177.4,44.5 L170.9,47.1 L164.4,48.6 L155.5,51 L154.1,52.1 L147.8,53.8 L137.4,57.6 L136.6,56.9 L122,64.4 L119.5,64.9 L95.4,79.2 L87.5,84.1 L84.6,85 L82.9,87.9 L80.9,89 L79.4,90.5 L75.1,93.8 L71.1,97.9 L60.8,108.4 L45.8,118.8 L44.2,120.6 L41.9,122 L40,122 L39.5,123 L37.9,124.5 L36.8,125.8 L27.6,132.6 L15.6,139.4 L13.4,141.5 L0,150 Z" id="Shape"></path>
                </g>
                <g id="Words" transform="translate(25.000000, 29.000000)" fill="#FFCE00" sketch:type="MSShapeGroup">
                    <path d="M56.8,153 C56.8,153 55.1,153.7 44.3,154.8 C44.3,154.8 39.6,155.1 35,149 C35,149 34.8,146.3 29,142.5 C29,142.5 30.2,140.2 29.3,138.8 C29.3,138.8 31.5,135.5 31.1,127.3 C31.1,127.3 31.3,123.3 25.4,119.8 C25.4,119.8 23.5,117.9 13.2,121.3 C13.2,121.3 3.5,125.3 0.3,132.4 C0.3,132.4 -0.5,137 1.4,140.8 C1.4,140.8 2.2,145.6 6.4,150.1 L7.1,151.2 L8.9,153.6 L9.6,156.4 C9.6,156.4 12.6,159.1 16.1,164.2 L17.6,164.9 L20.8,168.9 L22.3,170 L23.3,171.6 C23.3,171.6 27.3,174.9 28.6,179.6 C28.6,179.6 26.9,180.1 27.8,182.1 C27.8,182.1 28.8,183.6 31,182.9 L33,182.9 L35,181.9 L34.2,180.2 C34.2,180.2 34.2,178.5 32.9,175.5 C32.9,175.5 32.9,174 24.7,164.8 C24.7,164.8 21.2,160 15.2,153.8 C15.2,153.8 15.5,152.3 15,150.8 C15,150.8 16,151.1 20.5,151.3 C20.5,151.3 23.2,150.8 24.2,148.3 C24.2,148.3 26.5,146.5 28.5,148.8 C28.5,148.8 30.2,150.5 33.2,154.6 C33.2,154.6 33.4,158.1 44.5,161.1 C44.5,161.1 47.3,161.8 48.8,159.8 L53.5,159 L55,157.8 L56.2,157.8 C56.2,157.8 60,156.4 61.7,154.6 C61.7,154.8 63,152.3 56.8,153 L56.8,153 Z M25.5,133.2 C25.5,133.2 24.7,137.5 20.8,141.4 C20.8,141.4 17.8,144.9 12.1,146.9 C12.1,146.9 7.8,140.7 5.5,137.4 L6.3,136.6 L5.6,134.3 C5.6,134.3 4.9,132.3 7.1,130.3 C7.1,130.3 11.3,127.8 17.3,126.3 L22.8,125.8 L24.1,125.5 C24.2,125.3 26,128.8 25.5,133.2 L25.5,133.2 Z" id="Shape"></path>
                    <path d="M56.2,145.2 C54.9,142.9 54.7,140.7 54.7,140.7 C53.9,134.9 54.7,132.2 54.7,132.2 C45.9,129.8 41.7,125 41.7,125 C38.9,119.8 38.5,117 38.5,117 C39.3,111.2 42.4,107.5 42.4,107.5 C45,102.3 48.6,100 48.6,100 L51.4,98.8 L56.8,98.6 C59.6,98.6 59.3,100.5 59.3,100.5 C58.7,102 57.1,102.3 57.1,102.3 C56.1,103.3 53.9,102.4 53.9,102.4 C50.7,103.2 46.7,107.9 46.7,107.9 L44.9,112.4 L44.3,112.8 L44.4,113.4 C42.9,119.2 44.6,121.2 44.6,121.2 C47.2,124.6 51.6,126.4 51.6,126.4 C53.1,127.9 61.1,123.6 61.1,123.6 C64,121.6 66.8,123.9 66.8,123.9 C67.2,126.8 62.9,129.4 62.9,129.4 C61.7,131 59.6,131 59.6,131 C60.4,134.8 60,138.2 60,138.2 C62.2,142.4 62,143.8 62,143.8 C68.2,146.5 73.2,142.9 73.2,142.9 C73.7,142 77.6,140.1 77.6,140.1 C83.8,129.5 87.4,131.6 87.4,131.6 C89.8,133.2 87.4,136.8 87.4,136.8 C84.6,139.3 81.4,144.3 81.4,144.3 C76.6,150.5 72,149.1 72,149.1 C66,150.1 65.2,149.8 65.2,149.8 C61.4,148.9 59,146.8 59,146.8 L56.8,146.2 L56.2,145.2 L56.2,145.2 Z" id="Shape"></path>
                    <path d="M64.2,88.5 L63.5,92.5 C66,98.7 69.7,104.5 69.7,104.5 C77.5,113.5 91.2,125 91.2,125 C92.4,132 92.4,138.8 92.4,138.8 C92.9,141.5 94.2,142.1 94.2,142.1 C96.2,142.1 97.9,139.1 97.9,139.1 C98.6,132.8 96.6,125.4 96.6,125.4 C91.8,117.4 81.8,109.4 81.8,109.4 C77.1,104.4 72.8,97.2 72.8,97.2 C79.1,99 82.6,100 82.6,100 C84.9,102.8 90.8,105.2 90.8,105.2 C95.5,108.5 102.8,112.4 102.8,112.4 C105.1,115.1 110,116.2 110,116.2 L111,116.7 C115,120.4 121.5,120.4 121.5,120.4 C126.7,119.9 128.3,118.1 128.3,118.1 C129.6,116.1 128,113.4 128,113.4 L127.8,112.1 C124.1,108.9 122.8,104.9 122.8,104.9 C120.5,100.9 118.5,98.9 118.5,98.9 C117,95.2 117.5,94.6 117.5,94.6 C117.4,89.8 113.5,86.6 113.5,86.6 L110,82 L109,81.5 L108.6,80 C105.4,74.7 100.3,70.2 100.3,70.2 C97.5,69.2 96.6,70.7 96.6,70.7 C95.6,72.9 96.8,74.7 96.8,74.7 L98,75.4 L98.2,76.7 C101.2,82.2 105.9,88.2 105.9,88.2 C110.6,94 114.7,102.5 114.7,102.5 C116.4,104.8 117.4,105.3 117.4,105.3 C118.1,109.1 123.3,112.6 123.3,112.6 C124.3,113.8 123.3,115.4 123.3,115.4 C120,115.7 113.8,112.4 113.8,112.4 L112.9,111.1 L109.8,110 C104.5,106 100.4,104.2 100.4,104.2 L99.1,102.5 L91.8,99.9 L91.1,98.7 L88.5,98.1 C87.6,97.2 87,97.1 87,97.1 C80,95.9 72,89.6 72,89.6 C68.4,86.9 64.2,88.5 64.2,88.5 L64.2,88.5 Z" id="Shape"></path>
                    <path d="M162.6,92.9 C161.7,92 160.4,91.3 160.4,91.3 C157.7,88.5 154.9,88.2 154.9,88.2 C152.3,86.4 151.5,84.4 151.5,84.4 C148.4,76.2 145,75 145,75 C144.1,73.8 142.9,71.8 142.9,71.8 L140.1,72.1 L139.6,73.3 L134.9,77.2 L134.9,78.2 C126.6,85.5 127.2,88.9 127.2,88.9 C126,94.6 127.4,98.9 127.4,98.9 C127.1,102.9 129.4,106.4 129.4,106.4 C130.9,109.9 135.2,111.7 135.2,111.7 C142.5,113.5 145,110.5 145,110.5 C149.5,105.8 150.7,100.3 150.7,100.3 L148.9,96 C148.9,92.8 148.4,89 148.4,89 C150.6,89.3 151.3,90.2 151.3,90.2 C151.3,91.4 152,92 152,92 C154.3,92.3 155.9,93.1 155.9,93.1 C158.7,96.9 160.4,97 160.4,97 C162.9,96.7 163.1,95 163.1,95 C163.4,93.4 162.6,92.9 162.6,92.9 L162.6,92.9 Z M144.7,103.4 C144.7,103.4 144.8,104 143.3,104.6 C143.3,104.6 141.5,105.7 140,106.9 C140,106.9 138.6,107.1 137.9,106.3 C137.9,106.3 136,105.4 134.2,104.5 C134.2,104.5 133.5,101.4 132.5,100.3 C132.5,100.3 131.2,98.4 130.6,95.4 C130.6,95.4 130.4,94.2 131.2,93.4 C131.2,93.4 133.5,90 133.7,87.5 C133.7,87.5 135.5,83.4 138.3,80.6 C138.3,80.6 139.8,79.7 140.7,79.9 L140.9,79.8 C140.9,79.8 142,83.7 143.7,86.9 C143.7,86.9 143.9,90 145.1,91.3 C145.1,91.4 144.2,96.2 144.7,103.4 L144.7,103.4 Z" id="Shape"></path>
                    <path d="M158.1,71.8 L158,74.8 L160.1,80.3 C160.7,84.2 161.3,85.3 161.3,85.3 C164.2,91.8 168.2,93.8 168.2,93.8 C169,92.8 169,89.6 169,89.6 C168.4,82.1 165.5,77.1 165.5,77.1 C165.5,72 164,71.1 164,71.1 C163.5,69.5 161.5,66.6 161.5,66.6 L160.6,64.4 C163.5,66 165.1,67.8 165.1,67.8 C169,70.6 176.2,70.6 176.2,70.6 C178.2,69.2 179.6,61.7 179.6,61.7 C180.4,57.7 179.7,51.3 179.7,51.3 C180.3,45.7 179.1,41.2 179.1,41.2 C179.4,39.7 180.2,40.2 180.2,40.2 C181.6,40.4 181.8,41.9 181.8,41.9 C188.2,55.9 187.5,69.5 187.5,69.5 C188.4,72.7 188.4,75.9 188.4,75.9 C190,79.5 191.3,79.9 191.3,79.9 C192.3,81.6 192.3,83.1 192.3,83.1 C195.1,86.2 201.1,89.1 201.1,89.1 C203.2,88.5 203.7,86.6 203.7,86.6 C203.1,83.5 200.6,81.1 200.6,81.1 C198,76.5 195.6,74.1 195.6,74.1 C192.4,69.7 193,63.3 193,63.3 C191.9,57.9 191.1,56.5 191.1,56.5 C190.2,51.3 190,49.7 190,49.7 C189.4,40.7 184.5,37.8 184.5,37.8 C182,32.6 179.5,33.9 179.5,33.9 C177.6,35.3 176.8,35.5 176.8,35.5 C174.8,36.7 175.2,39.1 175.2,39.1 C174.3,47 174.7,50.5 174.7,50.5 C174.3,56.9 174.6,63.9 174.6,63.9 C173.2,65.1 170.2,64.5 170.2,64.5 C166.7,61.9 159.6,56.3 159.6,56.3 C157.5,55.2 152.7,50.7 152.7,50.7 C150.2,49.6 148.6,53.5 148.6,53.5 C149.7,57.3 153.4,60.7 153.4,60.7 C155.6,65.1 158.1,71.8 158.1,71.8 L158.1,71.8 Z" id="Shape"></path>
                    <path d="M241.2,72 C240.7,70.1 239.4,70.1 239.4,70.1 C236.6,70.1 234.2,70.9 234.2,70.9 C230.6,71.7 228,71.8 228,71.8 C225.6,71.8 223.2,72.7 223.2,72.7 C220.1,72.7 218.6,69.9 218.6,69.9 C223.1,67.7 225.2,65 225.2,65 C226.7,61.2 226.7,58.8 226.7,58.8 C224.7,53.4 222.5,51.7 222.5,51.7 C218.9,50.6 215.5,50.9 215.5,50.9 C213.3,51.1 212,52.9 212,52.9 C209,57.7 209,65 209,65 L210,68 L211,71.4 C211.1,72.5 212,72.8 212,72.8 C214.6,75 214.9,76.7 214.9,76.7 C218.7,78.7 228.3,79.9 228.3,79.9 L229.1,79 C234.6,78.1 238.3,75.1 238.3,75.1 C241.6,73 241.2,72 241.2,72 L241.2,72 Z M216,64.4 C216,64.4 214.8,63.6 213.9,60.5 C213.9,60.5 214,58.7 214.8,55.6 C214.8,55.6 215.9,54.6 220.4,56.2 C220.4,56.2 222.9,58.7 222.8,62.1 C222.8,62.1 222,63.6 219.8,64.7 C219.8,64.8 218.2,63.8 216,64.4 L216,64.4 Z" id="Shape"></path>
                    <path d="M310.2,57 C308.1,56.6 306.4,58.6 306.4,58.6 C304.2,60 301.9,59.8 301.9,59.8 C299.5,60.2 298.7,60.6 298.7,60.6 C291.5,62.1 286.1,61.4 286.1,61.4 C283.5,61.2 278.9,63 278.9,63 C275.1,60.4 272.9,55.1 272.9,55.1 C272.3,52.3 270.8,50.6 270.8,50.6 C269.7,45.7 269,43.7 269,43.7 C268,37.3 268.9,34.3 268.9,34.3 C268.9,31.8 268.4,31.1 268.4,31.1 C268.9,27.9 268.2,24.2 268.2,24.2 C269.3,21.1 269.2,19.3 269.2,19.3 C268.8,17.2 267,17.4 267,17.4 C264.5,18.4 264.5,20.4 264.5,20.4 C263,25.4 262.3,39.2 262.3,39.2 L262.7,40.8 C262.8,45.9 264.5,49 264.5,49 C265.7,51.2 265.9,53.9 265.9,53.9 C267.1,57.3 270.4,60 270.4,60 C272.8,63 272.8,64.5 272.8,64.5 C268.7,66.4 269.2,69.5 269.2,69.5 C270,74.3 271.7,75 271.7,75 C275.3,77.1 278.6,75.4 278.6,75.4 C281.2,71.8 282,69.3 282,69.3 C283,66.4 285,66.7 285,66.7 C289.1,65.9 292.8,67.3 292.8,67.3 C298.9,67.1 302.3,64.4 302.3,64.4 C305.5,63 307.2,63.8 307.2,63.8 C310,63.2 311.8,59.4 311.8,59.4 C311.6,56.8 310.2,57 310.2,57 L310.2,57 Z M275.5,70.6 C275.5,70.6 274.3,71 273.1,70 C273.1,70 273.2,69.4 274.2,68.4 C274.2,68.4 275.4,66.8 277.2,67.9 C277.2,67.9 277.4,69.2 275.5,70.6 L275.5,70.6 Z" id="Shape"></path>
                    <path d="M343.1,27.4 C345.2,26.4 347.2,24.9 347.2,24.9 C347.8,23.7 346.3,23.3 346.3,23.3 C343.8,23.2 340.3,25.2 340.3,25.2 C338.2,21.3 333.9,20.4 333.9,20.4 C330.4,20.2 328.5,21.9 328.5,21.9 C326.9,24.7 327.5,27 327.5,27 C328.7,28.9 329.9,30.6 329.9,30.6 C333.8,32.4 339.3,30.5 339.3,30.5 C340.4,29.9 340.4,31 340.4,31 C341.3,35 342.2,39.2 342.2,39.2 C342,43.6 341.1,46 341.1,46 C339.1,49 337.6,51.4 337.6,51.4 C331.5,53.6 328.4,55.2 328.4,55.2 C325.5,56 317.6,52.7 317.6,52.7 C314.1,51.1 311.6,47.9 311.6,47.9 C310.6,43 312,39.8 312,39.8 C313.9,36.6 313.2,32.7 313.2,32.7 C313.6,31.2 316.8,29.5 316.8,29.5 C319.4,27.5 320.3,26.1 320.3,26.1 C321.2,24 320.7,23.6 320.7,23.6 C319.5,22.4 317.1,23.5 317.1,23.5 C316.1,23.7 316.2,25 316.2,25 C313.4,28.1 310.2,30.9 310.2,30.9 C308.2,31.9 308.2,35.4 308.2,35.4 C307,42.3 309.3,50.8 309.3,50.8 C310.9,52.7 312.4,53.2 312.4,53.2 C315.2,54.6 320.5,57.3 320.5,57.3 C326.4,59.5 331.5,57.8 331.5,57.8 C336.6,56.7 340.9,54.3 340.9,54.3 C345.7,52.3 345.9,47.4 345.9,47.4 C346.9,43.2 346.1,38.4 346.1,38.4 C344.9,33.2 343,29.3 343,29.3 C341.6,27.5 343.1,27.4 343.1,27.4 L343.1,27.4 Z M332.4,27.2 C332.4,27.2 331.3,25.6 331.3,24 C331.3,24 331.8,22.8 332.9,22.8 C332.9,22.8 336.1,23.9 337.5,26.7 C337.5,26.6 334.4,28 332.4,27.2 L332.4,27.2 Z" id="Shape"></path>
                    <path d="M354.8,9.8 C353,9.4 351.4,10.7 351.4,10.7 C350.5,13.1 353.9,14.2 353.9,14.2 C357.9,19 367.3,31 367.3,31 C369.3,34.2 371.2,42.5 371.2,42.5 C368.7,44.9 368.1,49.6 368.1,49.6 C368.1,51.6 369.6,52.6 369.6,52.6 C372.1,53.6 375.6,53.7 375.6,53.7 C378.4,52.3 378.6,50.9 378.6,50.9 C378.8,46.1 377.2,43.1 377.2,43.1 C380.2,37.9 381.2,33 381.2,33 C384.7,24.1 387.1,20.6 387.1,20.6 C388.3,19.1 389,16.8 389,16.8 C391.5,14.8 392.1,11.2 392.1,11.2 C393.6,7.4 393.1,6.2 393.1,6.2 C394,2.4 392.2,1.8 392.2,1.8 C390.2,1.6 389.6,3.4 389.6,3.4 C389.6,5.9 388.4,6.5 388.4,6.5 C387.3,8.6 386.5,12.3 386.5,12.3 C385.1,15.3 385,16.9 385,16.9 C381.1,24.8 375.4,35.9 375.4,35.9 C374.8,35.7 374.2,34.5 374.2,34.5 C372.1,29.3 365.8,20.9 365.8,20.9 C363.2,17.4 361.6,15.8 361.6,15.8 C358.4,11.5 354.8,9.8 354.8,9.8 L354.8,9.8 Z" id="Shape"></path>
                    <path d="M433.2,16.1 C431.8,16.9 429.4,15.2 429.4,15.2 C425.3,9.1 420.6,8.4 420.6,8.4 C417.7,7.6 413.6,9.8 413.6,9.8 C410.2,11.7 407,16.4 407,16.4 C406.9,19 406.1,21.3 406.1,21.3 C406.6,24.1 408.7,28.4 408.7,28.4 C415.1,25.6 418.1,26.4 418.1,26.4 C420.9,27 421.1,30 421.1,30 C420.6,32.6 419.2,33.9 419.2,33.9 C416.1,35.4 409.8,34.9 409.8,34.9 C407.7,37.9 407.7,41.5 407.7,41.5 C407.3,45.5 409.5,49.3 409.5,49.3 C411.3,50.9 415.9,50.9 415.9,50.9 C425.3,50.3 430.7,44.9 430.7,44.9 C433.1,43.3 435.9,45.9 435.9,45.9 C436.1,47 434.9,48.5 434.9,48.5 C427.7,51.3 421.7,54.9 421.7,54.9 C419.9,55.4 414.8,54.3 414.8,54.3 C412.7,53.5 409.4,53.2 409.4,53.2 C405.3,51.7 403.5,46.6 403.5,46.6 C402.1,40.2 404.3,35 404.3,35 C404.8,32.4 406.2,31 406.2,31 C403.4,27 403.1,22.8 403.1,22.8 C403.1,18.3 404,16.2 404,16.2 C406.9,10.4 410.5,7.4 410.5,7.4 C416.1,4.8 417.6,5.2 417.6,5.2 C421.1,3.8 424,5.6 424,5.6 C430.6,9.8 433.2,16.1 433.2,16.1 L433.2,16.1 Z" id="Shape"></path>
                    <path d="M502.5,2.5 C497.2,0.2 488.7,1 488.7,1 C483.5,2.5 478.9,7.3 478.9,7.3 C476.6,12.5 477.4,15.5 477.4,15.5 C477.4,22.2 478.4,30.7 478.4,30.7 C477.4,35.9 477.9,43 477.9,43 C476.9,46.5 477.2,49.7 477.2,49.7 C478.7,52.2 481.9,53.9 481.9,53.9 C483.1,53.1 482.9,48.6 482.9,48.6 C484.7,42.8 483.7,37.4 483.7,37.4 C484.5,31.4 483.2,27.6 483.2,27.6 C482.4,19.3 481.9,15.3 481.9,15.3 C481.6,9.5 485.4,8.1 485.4,8.1 C489.2,5.3 494.4,4.6 494.4,4.6 C498.6,4.6 500.9,6.3 500.9,6.3 C502.7,9.6 501.9,13 501.9,13 C501.4,14.8 502.4,18.2 502.4,18.2 C500.4,21.4 496.1,26 496.1,26 C488.8,25.2 486.9,28.3 486.9,28.3 C485.9,31.3 488.9,32.6 488.9,32.6 C493.2,33.4 496.9,31.6 496.9,31.6 C499.9,33.3 502.9,36.9 502.9,36.9 C503.7,45.2 508.2,50.4 508.2,50.4 C511.5,56.2 514.2,60.6 514.2,60.6 C517.2,62.3 520.5,61.1 520.5,61.1 C521.5,57.4 519.5,56.1 519.5,56.1 C517,53.4 514.3,51.6 514.3,51.6 C511.6,44.9 510,42.4 510,42.4 C509,37.4 501.5,29.6 501.5,29.6 C506,28.1 506.3,24.9 506.3,24.9 C506.8,20.2 505.8,12.7 505.8,12.7 C505.5,3.8 502.5,2.5 502.5,2.5 L502.5,2.5 Z" id="Shape"></path>
                    <path d="M549.2,18.7 C546.9,18.5 545.5,18 545.5,18 C542.8,15.2 541.2,11.2 541.2,11.2 C537.2,8.4 533,7 533,7 C527.2,7 524,8.7 524,8.7 C519.3,12 518.8,12.9 518.8,12.9 C515.5,18.1 517,21.2 517,21.2 L519.2,24.5 L523.2,26.3 C530,27.6 532.5,30.3 532.5,30.3 C532.8,31.3 531.3,32.5 531.3,32.5 C522.9,43 524,44.2 524,44.2 C523.8,46.7 524.3,48.7 525.5,49.9 C526.8,51.7 527,53.4 527,53.4 C532.2,56.6 541.7,57.6 541.7,57.6 C544.9,58.1 545.9,60.3 545.9,60.3 C544.9,61.1 541.4,61.3 541.4,61.3 C537.9,62.8 530.9,59.5 530.9,59.5 C526.1,58 524.2,56.8 524.2,56.8 C516.2,46.5 516.9,43.8 516.9,43.8 C517.9,39.5 522.4,36.3 522.4,36.3 C524.1,34.8 524.8,32.5 524.8,32.5 C522.8,30.2 519.3,28.6 519.3,28.6 C513.8,25.9 513.1,21.3 513.1,21.3 C512.1,13.8 514.6,11.8 514.6,11.8 C519.1,4.8 524.6,3.8 524.6,3.8 C532.1,2.6 536.3,4.3 536.3,4.3 C543.8,7 545,10.1 545,10.1 C547.8,14.3 549.2,18.7 549.2,18.7 L549.2,18.7 Z" id="Shape"></path>
                    <path d="M585.3,14 C583.9,15.1 580.1,11.8 580.1,11.8 C575.3,4.5 571.9,5.7 571.9,5.7 C568.1,5.7 565.4,6.5 565.4,6.5 C561.2,8 560.6,9.9 560.6,9.9 C559.3,14.3 559.1,14.9 559.1,14.9 C562.1,20.1 565.7,23.2 565.7,23.2 C571.8,27 573.8,29.4 573.8,29.4 C576.7,32.6 578.5,35.4 578.5,35.4 C583.6,39.2 585.6,42.9 585.6,42.9 C585.8,46.2 584.5,50.1 584.5,50.1 C584.5,55.9 582.8,58.2 582.8,58.2 C577.5,61.3 575.1,62.1 575.1,62.1 C572.9,64.3 570.2,64.6 570.2,64.6 C567.4,62.9 565.5,63.4 565.5,63.4 C562,62.9 559,60.2 559,60.2 C556.6,58.1 555.4,54.4 555.4,54.4 C554.3,51.2 554,50.8 554,50.8 C552.7,49.7 552.7,48.9 552.7,48.9 C553,47.3 554.5,47.7 554.5,47.7 C556.8,47.5 557.7,47.7 557.7,47.7 C558.9,48 558.5,49.5 558.5,49.5 C560.6,52.1 562.1,54.3 562.1,54.3 C563.4,57.4 566.8,58.7 566.8,58.7 C570,57.2 575,56.2 575,56.2 C578.4,55.1 579.7,50.6 579.7,50.6 C580.2,47.4 578.6,44.4 578.6,44.4 C576.5,40.1 572.8,35.2 572.8,35.2 C570.6,33 568.6,31.3 568.6,31.3 C565,29.9 559.8,27 559.8,27 C555.6,20.6 555.2,14.6 555.2,14.6 C556,8.6 558.7,5.3 558.7,5.3 C561.1,3.4 563.8,2.4 563.8,2.4 C568.9,1.4 573.2,2.2 573.2,2.2 C577.9,3.1 578.9,4.4 578.9,4.4 C582.1,7 583.3,8.4 583.3,8.4 C586.3,12.3 585.3,14 585.3,14 L585.3,14 Z" id="Shape"></path>
                    <path d="M616.1,0.2 C612.3,0.8 611.5,2 611.5,2 C609.4,2.9 609.4,5.4 609.4,5.4 C610.6,8.6 612.5,9.8 612.5,9.8 C615.6,11.2 618.5,10.2 618.5,10.2 C621.6,8.2 622.1,5.8 622.1,5.8 C622.1,3.6 619.3,1.7 619.3,1.7 C617.2,0.1 616.1,0.2 616.1,0.2 L616.1,0.2 Z" id="Shape"></path>
                    <path d="M617.9,11.9 C615.8,11.7 615,13.5 615,13.5 C614.6,17 614.6,20 614.6,20 C613.7,24.1 613.8,27.4 613.8,27.4 C612.3,33.8 610.8,42.3 610.8,42.3 C610.6,44.5 610.4,46.2 610.4,46.2 C608.9,50.1 608,52.2 608,52.2 C607,58.7 606.5,63 606.5,63 C605.3,65.4 603,72.8 603,72.8 C603.4,74 605.2,74 605.2,74 C608.2,74 609.8,70.6 609.8,70.6 C610.2,68.1 609.8,67.6 609.8,67.6 C611.6,63.8 610.7,62.5 610.7,62.5 C612.9,59.5 612.2,56.4 612.2,56.4 C614.4,53.5 614.2,52 614.2,52 C613.2,50.8 612.8,51.4 612.8,51.4 C614.3,45.5 616.2,34.4 616.2,34.4 C617.7,28.5 618.7,23 618.7,23 C620.2,16.5 619.6,13.5 619.6,13.5 C619,11.8 617.9,11.9 617.9,11.9 L617.9,11.9 Z" id="Shape"></path>
                    <path d="M659.1,16.2 C657.2,15.6 655,16.6 655,16.6 C653.8,18.7 654,21.1 654,21.1 C652.6,25.7 651.8,28.7 651.8,28.7 C650.4,34.5 649.9,37.2 649.9,37.2 C648.9,38.8 649,42.7 649,42.7 C649.4,46.2 649,50.9 649,50.9 C648.2,56.4 648.4,57.4 648.4,57.4 C645,61.6 643.2,62.9 643.2,62.9 C639.7,64.8 637.3,68.7 637.3,68.7 C636.5,71.9 638.4,72.8 638.4,72.8 C641,74.9 645,74.3 645,74.3 C649.4,72.2 653.5,71.3 653.5,71.3 C655.9,72.7 655,76.7 655,76.7 C655.2,79.8 659.1,81.5 659.1,81.5 C664.6,83.6 670.3,82.9 670.3,82.9 C674.3,82.9 677.2,81.3 677.2,81.3 C678.7,79.4 676.7,78.2 676.7,78.2 C674.1,76.8 670.6,77.1 670.6,77.1 C665,78.1 662.4,76.1 662.4,76.1 C660.6,74.1 659.8,70.9 659.8,70.9 C658.4,67.7 655.6,66.5 655.6,66.5 C652,66.5 649.7,66.1 649.7,66.1 C648.2,65.6 649.8,64.9 649.8,64.9 C651.8,63.1 652.7,58.9 652.7,58.9 C653.5,54.5 652.2,50 652.2,50 C653,44.1 653.3,40 653.3,40 C655.5,32.4 655.9,28.9 655.9,28.9 C656.9,25.8 658.7,24.5 658.7,24.5 C660.2,21.1 660.3,19.5 660.3,19.5 C661,17.1 659.1,16.2 659.1,16.2 L659.1,16.2 Z" id="Shape"></path>
                    <path d="M716,9.1 C712.6,8.3 709.1,10.2 709.1,10.2 C707.5,12 707.3,15.3 707.3,15.3 C709.1,18.5 710.4,19.3 710.4,19.3 C713.2,20.5 715.6,20.8 715.6,20.8 C718.2,20 721.1,19.2 721.1,19.2 C722.9,16.4 722.2,14.1 722.2,14.1 C720,10.4 716,9.1 716,9.1 L716,9.1 Z" id="Shape"></path>
                    <path d="M711.6,25.4 C708.1,26.3 707.8,30.5 707.8,30.5 C704.7,38.7 703.3,47.6 703.3,47.6 C703.5,50.7 704.5,53.7 704.5,53.7 C703.5,60.3 699.3,67.2 699.3,67.2 C696.7,71.6 696.4,78.8 696.4,78.8 C695.8,82.8 695.3,86.3 695.3,86.3 C694.1,90.3 694.9,92.4 694.9,92.4 C696.8,94.6 699.4,93.8 699.4,93.8 C701.2,91.7 700.2,89.9 700.2,89.9 C699.6,83.7 700.7,78.4 700.7,78.4 C703.8,72 705.9,64 705.9,64 C707.4,58 707.1,53.8 707.1,53.8 C708.3,49.4 707.7,48.3 707.7,48.3 C708.9,42.7 713.1,33.7 713.1,33.7 C713.9,28.3 713.5,27.5 713.5,27.5 C712.5,24.9 711.6,25.4 711.6,25.4 L711.6,25.4 Z" id="Shape"></path>
                    <path d="M778.3,55.2 C779.8,52.9 778,49.9 778,49.9 C773.5,42.7 766,36.9 766,36.9 C759.2,32.7 753.3,34.2 753.3,34.2 C745.6,35.4 742.1,39 742.1,39 C737.3,45 736.8,48 736.8,48 C735.8,55.7 737,62.8 737,62.8 C728.7,67.8 724.2,78.6 724.2,78.6 C723,85.1 726.7,89.6 726.7,89.6 C729.9,96.8 735,99.1 735,99.1 C746.7,103.9 753.7,101.3 753.7,101.3 C760.4,99.5 762,98.1 762,98.1 C760.5,93.8 758,93.8 758,93.8 C753.3,93.6 751.5,95.3 751.5,95.3 C746.8,97.5 743.7,97 743.7,97 C735,94.3 734.4,90 734.4,90 C732.9,84.2 732.4,82.3 732.4,82.3 C735.6,74.3 741.2,70.1 741.2,70.1 C745.9,71.1 751,67.9 751,67.9 C751.8,64.2 746.3,59.9 746.3,59.9 C743.6,52.9 747.3,44.1 747.3,44.1 C752.5,38.6 755.3,39.3 755.3,39.3 C760.3,38.8 762.1,40.3 762.1,40.3 C767.4,44.6 771.3,49.3 771.3,49.3 C772.5,53.2 778.3,55.2 778.3,55.2 L778.3,55.2 Z" id="Shape"></path>
                    <path d="M791.7,55.5 C789.4,53.7 786.7,56.5 786.7,56.5 C784.4,60.5 785.2,64.2 785.2,64.2 C782,72.5 782.2,81.5 782.2,81.5 C781.2,86.7 779.2,90.2 779.2,90.2 C776.5,97.2 774.7,105.5 774.7,105.5 C774.7,108.8 775.7,111.5 775.7,111.5 C776.9,111.5 778.9,110.5 778.9,110.5 C780.6,108.2 783.2,97.3 783.2,97.3 C787.2,84.5 788.9,67.6 788.9,67.6 C790.1,63.1 791.6,64.9 791.6,64.9 C792.8,72.9 797.1,80.6 797.1,80.6 C798.1,85.1 798.1,88.1 798.1,88.1 C798.4,90.6 799.3,91.6 799.3,91.6 C799,98.6 802.1,104.3 802.1,104.3 C802.6,113.3 803.9,114.3 803.9,114.3 C806.7,118.8 809.9,118.6 809.9,118.6 C812.4,118.6 813.1,115.6 813.1,115.6 C812.4,107.1 813.8,102.6 813.8,102.6 C817.3,97.8 818,95.4 818,95.4 C819.3,90.2 823,88.4 823,88.4 C827.5,84.6 829.5,78.4 829.5,78.4 C830.2,76.9 831.8,75.6 831.8,75.6 C834.5,71.9 833.8,68.9 833.8,68.9 C832.3,65.2 829.8,65.1 829.8,65.1 C826.6,65.9 826,67.9 826,67.9 C823.2,73.4 821.8,76.9 821.8,76.9 C818.8,80.9 819,82.2 819,82.2 C817.3,86.9 815.3,88.9 815.3,88.9 C810.8,93.7 811.1,96.2 811.1,96.2 C809.3,98.7 808.3,97.7 808.3,97.7 C805.1,94.7 805.1,91.4 805.1,91.4 C804.3,87.1 803.1,86.6 803.1,86.6 C801.4,82.1 801.4,76.3 801.4,76.3 C799,66.2 791.7,55.5 791.7,55.5 L791.7,55.5 Z" id="Shape"></path>
                    <path d="M882.2,97.2 C872.9,89.7 869.7,90.5 869.7,90.5 C861.2,86.3 857.5,86.3 857.5,86.3 C850.3,86.6 847.5,90.1 847.5,90.1 C840,94.9 837.8,98.4 837.8,98.4 C834.1,103.1 833.6,108.6 833.6,108.6 C833.6,114.1 835.9,118.3 835.9,118.3 C839.1,125.1 844.4,129.1 844.4,129.1 C849.6,131.8 853.1,131.3 853.1,131.3 C855.4,130.1 853.3,128.8 853.3,128.8 C850.5,125 848.3,124.6 848.3,124.6 C843.3,122.1 840,113.1 840,113.1 C840.3,106.6 842.2,101.6 842.2,101.6 C845,97.1 848.9,95.8 848.9,95.8 C852.9,94.5 853.9,92.3 853.9,92.3 C861.7,92.3 864.1,93 864.1,93 L866.1,92.7 L864.8,94.2 C862.1,96.9 863.1,100.2 863.1,100.2 C864.9,104.5 869.3,105.9 869.3,105.9 C873.1,106.1 874.6,104.7 874.6,104.7 C876.6,101.9 877.6,99.4 877.6,99.4 C881.9,101.6 883.6,99.9 883.6,99.9 C884.5,98.3 882.2,97.2 882.2,97.2 L882.2,97.2 Z M872.8,100.7 C872.8,100.7 870.1,102 868.6,102 C868.6,102 867.3,101.2 867.6,98.8 C867.6,98.8 868.9,96.5 871.1,95.6 C871.1,95.6 873.6,95.1 875.1,97.1 C875.2,97.2 874.5,99.2 872.8,100.7 L872.8,100.7 Z" id="Shape"></path>
                    <path d="M889,141 L889.7,142 C892.7,143.8 897.4,143 897.4,143 C900.4,143.3 904.4,141.7 904.4,141.7 C910.1,139.5 910.6,135 910.6,135 C911.4,128.8 908.3,126.2 908.3,126.2 C903.6,120.5 899.8,119.4 899.8,119.4 C894.6,118.1 891.6,120.2 891.6,120.2 C889.2,121.4 886.3,122.2 886.3,122.2 C884.6,123.9 883.1,127.4 883.1,127.4 C881.9,130.9 882.7,134.1 882.7,134.1 C878.9,132.8 873,130.4 873,130.4 C868.7,128.9 866.4,129.2 866.4,129.2 C864.4,129.5 866.1,130.9 866.1,130.9 C869.3,132.7 874.8,134.9 874.8,134.9 C879.5,136.2 884.2,139 884.2,139 L884.4,137.8 C884.9,138.6 884.9,141.1 884.9,141.1 C882.7,144.6 883.6,147.4 883.6,147.4 C885.9,151.9 890.3,155.1 890.3,155.1 C898.3,160.8 902.3,162.6 902.3,162.6 C906.5,164.6 909,164.6 909,164.6 C910.5,164.3 910.3,161.9 910.3,161.9 C909.6,160.2 907.3,160.6 907.3,160.6 C903.8,158.8 901.6,156.6 901.6,156.6 C894.9,150.8 890.4,146.4 890.4,146.4 C888.1,144.7 889.2,142.2 889.2,142.2 L889.2,141 L889,141 Z M889.3,128.8 C891.3,125 894.8,124.1 894.8,124.1 C896.5,124.9 899.4,124.3 899.4,124.3 C901.6,124.5 902.2,126.2 902.2,126.2 C902.7,129 904.5,130.8 904.5,130.8 C905.5,134 903.9,134.9 903.9,134.9 C900.9,137.4 898.5,137.5 898.5,137.5 C895,137.9 892.9,138 892.9,138 C890,137.5 889.3,136.1 889.3,136.1 C888.3,132.1 889.3,128.8 889.3,128.8 L889.3,128.8 Z" id="Shape"></path>
                </g>
            </g>
        </g>
    </g>
</svg>